<svg width="14" height="14" viewBox="0 0 14 14" fill="none" xmlns="http://www.w3.org/2000/svg">
<g clip-path="url(#clip0_550_583)">
<path d="M12.6862 3.97327C12.5719 3.97598 12.4632 4.02405 12.384 4.10698L7.06182 9.45611L1.7396 4.10698C1.69924 4.06521 1.65096 4.03201 1.5976 4.00933C1.54425 3.98665 1.48691 3.97497 1.42898 3.97497C1.34282 3.97499 1.25862 4.00084 1.18716 4.04923C1.1157 4.09761 1.06023 4.16633 1.02784 4.24658C0.995458 4.32682 0.98763 4.41496 1.00536 4.4997C1.02309 4.58445 1.06558 4.66195 1.12738 4.72229L6.75571 10.3791C6.83691 10.4607 6.94702 10.5065 7.06182 10.5065C7.17663 10.5065 7.28673 10.4607 7.36793 10.3791L12.9963 4.72229C13.0592 4.66156 13.1025 4.58312 13.1203 4.49727C13.1381 4.41141 13.1297 4.32214 13.0962 4.24117C13.0627 4.16019 13.0056 4.09128 12.9324 4.04347C12.8593 3.99567 12.7735 3.9712 12.6862 3.97327Z" fill="#FAFBFB"/>
</g>
<defs>
<clipPath id="clip0_550_583">
<rect width="14" height="14" fill="white" transform="translate(14 14) rotate(-180)"/>
</clipPath>
</defs>
</svg>
