<svg width="20" height="20" viewBox="0 0 20 20" fill="none" xmlns="http://www.w3.org/2000/svg">
<path fill-rule="evenodd" clip-rule="evenodd" d="M13.5124 6.0889C13.583 6.05973 13.6583 6.04373 13.7346 6.0417C13.8394 6.03907 13.9431 6.06283 14.0363 6.11079C14.1295 6.15875 14.2092 6.22938 14.2679 6.31617C14.3267 6.40297 14.3627 6.50314 14.3726 6.60748C14.3825 6.71182 14.366 6.81698 14.3246 6.91328C14.3246 6.91328 13.9287 7.83752 13.4123 8.8835C12.896 9.92947 12.3244 11.0595 11.692 11.6919C11.0595 12.3244 9.92951 12.8959 8.88354 13.4123C7.83756 13.9287 6.91332 14.3246 6.91332 14.3246C6.79923 14.3735 6.67315 14.3873 6.55116 14.3643C6.42918 14.3413 6.31681 14.2825 6.22838 14.1953C6.13995 14.1082 6.07946 13.9967 6.05463 13.8751C6.02979 13.7535 6.04174 13.6272 6.08894 13.5124C6.08894 13.5124 6.4601 12.6111 6.96459 11.5756C7.46908 10.54 8.0567 9.39295 8.72485 8.72481C9.39299 8.05666 10.5401 7.46904 11.5756 6.96455C12.6111 6.46006 13.5124 6.0889 13.5124 6.0889ZM12.3981 8.10115C12.417 8.0582 12.4375 8.01137 12.4773 7.92728C12.4007 7.96294 12.3594 7.98042 12.3214 7.99653C12.2725 8.01725 12.229 8.0357 12.1225 8.0876C11.1267 8.57269 9.98215 9.23508 9.60863 9.60859C9.23511 9.98211 8.57273 11.1267 8.08764 12.1224C8.03574 12.229 8.01729 12.2725 7.99657 12.3214C7.98046 12.3594 7.96298 12.4006 7.92732 12.4772C8.01142 12.4375 8.05825 12.4169 8.1012 12.3981C8.15826 12.373 8.20848 12.351 8.33015 12.2909C9.34147 11.7916 10.5031 11.1132 10.8082 10.8081C11.1132 10.5031 11.7917 9.34143 12.2909 8.33011C12.351 8.20843 12.373 8.15822 12.3981 8.10115Z" fill="#FAFBFB"/>
<circle cx="10.2062" cy="10.2062" r="7.58125" stroke="#FAFBFB" stroke-width="1.5" stroke-miterlimit="16"/>
</svg>
