<svg width="17" height="17" viewBox="0 0 17 17" fill="none" xmlns="http://www.w3.org/2000/svg">
<path d="M6.55176 1.77087C5.48225 1.77087 4.60384 2.64929 4.60384 3.71879V11.5105C4.60384 12.58 5.48225 13.4584 6.55176 13.4584H12.2184C13.2879 13.4584 14.1663 12.58 14.1663 11.5105V3.71879C14.1663 2.64929 13.2879 1.77087 12.2184 1.77087H6.55176ZM6.55176 2.83337H12.2184C12.7136 2.83337 13.1038 3.22359 13.1038 3.71879V11.5105C13.1038 12.0057 12.7136 12.3959 12.2184 12.3959H6.55176C6.05655 12.3959 5.66634 12.0057 5.66634 11.5105V3.71879C5.66634 3.22359 6.05655 2.83337 6.55176 2.83337ZM3.89551 3.54171L3.46387 3.82947C3.06968 4.09226 2.83301 4.53466 2.83301 5.00818V11.8646C2.83301 13.7229 4.33928 15.2292 6.19759 15.2292H10.929C11.4029 15.2292 11.8453 14.9925 12.1077 14.5983L12.3955 14.1667H6.19759C4.92613 14.1667 3.89551 13.1361 3.89551 11.8646V3.54171Z" fill="#FAFBFB"/>
</svg>
