<svg width="26" height="27" viewBox="0 0 26 27" fill="none" xmlns="http://www.w3.org/2000/svg">
<rect width="26" height="27" fill="#20222D"/>
<path d="M19.25 3C18.1047 3 17.1822 3.8874 17.0508 5H15.25C13.464 5 12 6.46403 12 8.25V12.75H9C9 11.5162 7.98375 10.5 6.75 10.5H5.25C4.01625 10.5 3 11.5162 3 12.75V14.25C3 15.4838 4.01625 16.5 5.25 16.5H6.75C7.98375 16.5 9 15.4838 9 14.25H12V18.75C12 20.536 13.464 22 15.25 22H17.0508C17.1822 23.1126 18.1047 24 19.25 24H20.75C21.9838 24 23 22.9838 23 21.75V20.25C23 19.0162 21.9838 18 20.75 18H19.25C18.0162 18 17 19.0162 17 20.25V20.5H15.25C14.275 20.5 13.5 19.725 13.5 18.75V8.25C13.5 7.27497 14.275 6.5 15.25 6.5H17V6.75C17 7.98375 18.0162 9 19.25 9H20.75C21.9838 9 23 7.98375 23 6.75V5.25C23 4.01625 21.9838 3 20.75 3H19.25ZM19.25 4.5H20.75C21.1733 4.5 21.5 4.82675 21.5 5.25V6.75C21.5 7.17325 21.1733 7.5 20.75 7.5H19.25C18.8268 7.5 18.5 7.17325 18.5 6.75V5.87305C18.5132 5.79253 18.5132 5.7104 18.5 5.62988V5.25C18.5 4.82675 18.8268 4.5 19.25 4.5ZM19.25 10.5C18.0162 10.5 17 11.5162 17 12.75V14.25C17 15.4838 18.0162 16.5 19.25 16.5H20.75C21.9838 16.5 23 15.4838 23 14.25V12.75C23 11.5162 21.9838 10.5 20.75 10.5H19.25ZM5.25 12H6.75C7.17325 12 7.5 12.3268 7.5 12.75V14.25C7.5 14.6732 7.17325 15 6.75 15H5.25C4.82675 15 4.5 14.6732 4.5 14.25V12.75C4.5 12.3268 4.82675 12 5.25 12ZM19.25 12H20.75C21.1733 12 21.5 12.3268 21.5 12.75V14.25C21.5 14.6732 21.1733 15 20.75 15H19.25C18.8268 15 18.5 14.6732 18.5 14.25V12.75C18.5 12.3268 18.8268 12 19.25 12ZM19.25 19.5H20.75C21.1733 19.5 21.5 19.8267 21.5 20.25V21.75C21.5 22.1733 21.1733 22.5 20.75 22.5H19.25C18.8268 22.5 18.5 22.1733 18.5 21.75V21.373C18.5132 21.2925 18.5132 21.2104 18.5 21.1299V20.25C18.5 19.8267 18.8268 19.5 19.25 19.5Z" fill="#651DB9"/>
<path d="M19.25 3C18.1047 3 17.1822 3.8874 17.0508 5H15.25C13.464 5 12 6.46403 12 8.25V12.75H9C9 11.5162 7.98375 10.5 6.75 10.5H5.25C4.01625 10.5 3 11.5162 3 12.75V14.25C3 15.4838 4.01625 16.5 5.25 16.5H6.75C7.98375 16.5 9 15.4838 9 14.25H12V18.75C12 20.536 13.464 22 15.25 22H17.0508C17.1822 23.1126 18.1047 24 19.25 24H20.75C21.9838 24 23 22.9838 23 21.75V20.25C23 19.0162 21.9838 18 20.75 18H19.25C18.0162 18 17 19.0162 17 20.25V20.5H15.25C14.275 20.5 13.5 19.725 13.5 18.75V8.25C13.5 7.27497 14.275 6.5 15.25 6.5H17V6.75C17 7.98375 18.0162 9 19.25 9H20.75C21.9838 9 23 7.98375 23 6.75V5.25C23 4.01625 21.9838 3 20.75 3H19.25ZM19.25 4.5H20.75C21.1733 4.5 21.5 4.82675 21.5 5.25V6.75C21.5 7.17325 21.1733 7.5 20.75 7.5H19.25C18.8268 7.5 18.5 7.17325 18.5 6.75V5.87305C18.5132 5.79253 18.5132 5.7104 18.5 5.62988V5.25C18.5 4.82675 18.8268 4.5 19.25 4.5ZM19.25 10.5C18.0162 10.5 17 11.5162 17 12.75V14.25C17 15.4838 18.0162 16.5 19.25 16.5H20.75C21.9838 16.5 23 15.4838 23 14.25V12.75C23 11.5162 21.9838 10.5 20.75 10.5H19.25ZM5.25 12H6.75C7.17325 12 7.5 12.3268 7.5 12.75V14.25C7.5 14.6732 7.17325 15 6.75 15H5.25C4.82675 15 4.5 14.6732 4.5 14.25V12.75C4.5 12.3268 4.82675 12 5.25 12ZM19.25 12H20.75C21.1733 12 21.5 12.3268 21.5 12.75V14.25C21.5 14.6732 21.1733 15 20.75 15H19.25C18.8268 15 18.5 14.6732 18.5 14.25V12.75C18.5 12.3268 18.8268 12 19.25 12ZM19.25 19.5H20.75C21.1733 19.5 21.5 19.8267 21.5 20.25V21.75C21.5 22.1733 21.1733 22.5 20.75 22.5H19.25C18.8268 22.5 18.5 22.1733 18.5 21.75V21.373C18.5132 21.2925 18.5132 21.2104 18.5 21.1299V20.25C18.5 19.8267 18.8268 19.5 19.25 19.5Z" fill="white" fill-opacity="0.5"/>
</svg>
