<svg width="21" height="20" viewBox="0 0 21 20" fill="none" xmlns="http://www.w3.org/2000/svg">
<path d="M10.375 6.45833H10.375L10.3749 6.45116C10.3745 6.41802 10.3872 6.38605 10.4102 6.36227C10.4333 6.33849 10.4649 6.32484 10.498 6.32432C10.5148 6.32406 10.5314 6.32716 10.5469 6.33344L10.7345 5.86996L10.5469 6.33344C10.5624 6.33972 10.5765 6.34905 10.5884 6.36088C10.6002 6.37271 10.6096 6.38679 10.6159 6.4023C10.6222 6.41781 10.6253 6.43442 10.625 6.45116L10.625 6.45116V6.45833V9.375V9.875H11.125H14.0417V9.87505L14.0487 9.87495C14.0653 9.87472 14.0817 9.87778 14.0971 9.88396C14.1125 9.89013 14.1265 9.89931 14.1383 9.91094C14.1501 9.92258 14.1595 9.93644 14.1659 9.95173L14.6271 9.75876L14.1659 9.95174C14.1723 9.96702 14.1756 9.98342 14.1756 10C14.1756 10.0166 14.1723 10.033 14.1659 10.0483L14.1659 10.0483C14.1595 10.0636 14.1501 10.0774 14.1383 10.0891C14.1265 10.1007 14.1125 10.1099 14.0971 10.116C14.0818 10.1222 14.0653 10.1253 14.0487 10.125L14.0487 10.125H14.0417H11.125H10.625V10.625V13.5417H10.6249L10.625 13.5487C10.6253 13.5653 10.6222 13.5818 10.616 13.5971C10.6099 13.6125 10.6007 13.6265 10.589 13.6383C10.5774 13.6501 10.5635 13.6595 10.5483 13.6659L10.5483 13.6659C10.533 13.6723 10.5166 13.6756 10.5 13.6756C10.4834 13.6756 10.467 13.6723 10.4517 13.6659L10.2706 14.0989L10.4517 13.6659C10.4364 13.6595 10.4226 13.6501 10.4109 13.6383C10.3993 13.6265 10.3901 13.6125 10.3839 13.5971C10.3778 13.5818 10.3747 13.5653 10.3749 13.5487L10.375 13.5487V13.5417V10.625V10.125H9.87499H6.95832V10.1249L6.95125 10.125C6.93468 10.1253 6.91823 10.1222 6.90285 10.116C6.88747 10.1099 6.87348 10.1007 6.86168 10.0891C6.84988 10.0774 6.84051 10.0636 6.83411 10.0483L6.37285 10.2412L6.83411 10.0483C6.82772 10.033 6.82442 10.0166 6.82442 10C6.82442 9.98343 6.82772 9.96702 6.83411 9.95173C6.84051 9.93644 6.84988 9.92258 6.86168 9.91094C6.87348 9.89931 6.88748 9.89014 6.90285 9.88396C6.91823 9.87778 6.93468 9.87472 6.95125 9.87495L6.95125 9.875H6.95832H9.87499H10.375V9.375V6.45833ZM2.66666 10C2.66666 5.68117 6.18116 2.16667 10.5 2.16667C14.8188 2.16667 18.3333 5.68117 18.3333 10C18.3333 14.3188 14.8188 17.8333 10.5 17.8333C6.18116 17.8333 2.66666 14.3188 2.66666 10ZM18.0833 10C18.0833 5.80444 14.6956 2.41667 10.5 2.41667C6.30442 2.41667 2.91666 5.80444 2.91666 10C2.91666 14.1956 6.30442 17.5833 10.5 17.5833C14.6956 17.5833 18.0833 14.1956 18.0833 10Z" fill="#FAFBFB" stroke="#FAFBFB"/>
</svg>
