<svg width="20" height="20" viewBox="0 0 20 20" fill="none" xmlns="http://www.w3.org/2000/svg">
<path d="M10 2.30762C7.8827 2.30762 6.15388 4.03643 6.15388 6.15377C6.15388 8.27111 7.8827 9.99992 10 9.99992C12.1174 9.99992 13.8462 8.27111 13.8462 6.15377C13.8462 4.03643 12.1174 2.30762 10 2.30762ZM10 3.46146C11.4938 3.46146 12.6923 4.66002 12.6923 6.15377C12.6923 7.64753 11.4938 8.84608 10 8.84608C8.50628 8.84608 7.30773 7.64753 7.30773 6.15377C7.30773 4.66002 8.50628 3.46146 10 3.46146ZM5.37639 11.5384C4.538 11.5384 3.84619 12.2302 3.84619 13.0686V13.6538C3.84619 15.04 4.72283 16.1123 5.88721 16.7547C7.05158 17.3971 8.52623 17.6922 10 17.6922C11.4738 17.6922 12.9485 17.3971 14.1129 16.7547C15.1057 16.207 15.8529 15.3317 16.0622 14.2307C16.0622 14.2307 16.1365 13.8812 16.1546 13.6538C16.1728 13.426 16.1546 13.0686 16.1546 13.0686C16.1546 12.2302 15.4621 11.5384 14.6237 11.5384H5.37639ZM5.37639 12.6922H14.6237C14.8384 12.6922 15.0008 12.8539 15.0008 13.0686V13.0768L15 13.6538C15 14.5752 14.4824 15.2337 13.5555 15.7451C12.6285 16.2565 11.3147 16.5384 10 16.5384C8.68538 16.5384 7.37157 16.2565 6.4446 15.7451C5.51763 15.2337 5.00004 14.5752 5.00004 13.6538V13.0686C5.00004 12.8539 5.1617 12.6922 5.37639 12.6922Z" fill="#FAFBFB"/>
</svg>
