<svg width="10" height="11" viewBox="0 0 10 11" fill="none" xmlns="http://www.w3.org/2000/svg">
<g clip-path="url(#clip0_490_107085)">
<path d="M9.06151 3.33786C8.97984 3.33979 8.90225 3.37413 8.84568 3.43337L5.04409 7.25418L1.2425 3.43337C1.21367 3.40353 1.17919 3.37981 1.14108 3.36361C1.10296 3.34742 1.06201 3.33907 1.02063 3.33907C0.959085 3.33908 0.898944 3.35755 0.847902 3.39211C0.79686 3.42668 0.757237 3.47576 0.734104 3.53308C0.710972 3.5904 0.70538 3.65335 0.718046 3.71388C0.730712 3.77442 0.761058 3.82977 0.805203 3.87287L4.82544 7.91344C4.88344 7.9717 4.96208 8.00444 5.04409 8.00444C5.12609 8.00444 5.20474 7.9717 5.26274 7.91344L9.28297 3.87287C9.32795 3.82949 9.35882 3.77347 9.37156 3.71214C9.3843 3.65082 9.37831 3.58705 9.35436 3.52921C9.33042 3.47137 9.28965 3.42215 9.23739 3.388C9.18513 3.35386 9.12382 3.33638 9.06151 3.33786V3.33786Z" fill="#FF5458"/>
</g>
<defs>
<clipPath id="clip0_490_107085">
<rect width="10" height="10" fill="white" transform="translate(10 10.5) rotate(-180)"/>
</clipPath>
</defs>
</svg>
