<svg width="25" height="24" viewBox="0 0 25 24" fill="none" xmlns="http://www.w3.org/2000/svg">
<path d="M12.25 2C6.73615 2 2.25 6.48615 2.25 12C2.25 13.6377 2.68135 15.1674 3.38086 16.5322L2.29688 20.4141C2.0444 21.3158 2.93596 22.2063 3.83789 21.9541L7.72168 20.8701C9.08552 21.5687 10.6135 22 12.25 22C17.7639 22 22.25 17.5139 22.25 12C22.25 6.48615 17.7639 2 12.25 2ZM12.25 3.5C16.9531 3.5 20.75 7.29685 20.75 12C20.75 16.7031 16.9531 20.5 12.25 20.5C10.7485 20.5 9.34613 20.1091 8.12207 19.4268C7.94924 19.3303 7.7453 19.3061 7.55469 19.3594L3.86133 20.3906L4.89258 16.6992C4.94585 16.5086 4.92163 16.3047 4.8252 16.1318C4.14183 14.9067 3.75 13.5023 3.75 12C3.75 7.29685 7.54685 3.5 12.25 3.5Z" fill="#FAFBFB"/>
</svg>
