<svg width="17" height="17" viewBox="0 0 17 17" fill="none" xmlns="http://www.w3.org/2000/svg">
<path d="M8.50041 1.41675C7.25788 1.41675 6.22325 2.34517 6.0496 3.54175H3.62646C3.5963 3.53659 3.56575 3.53404 3.53515 3.53414C3.50872 3.53471 3.48236 3.53725 3.4563 3.54175H2.30249C2.23209 3.54075 2.1622 3.55376 2.09687 3.58001C2.03154 3.60626 1.97209 3.64523 1.92195 3.69466C1.87182 3.74409 1.83201 3.80299 1.80484 3.86794C1.77766 3.93289 1.76367 4.00259 1.76367 4.073C1.76367 4.1434 1.77766 4.2131 1.80484 4.27805C1.83201 4.343 1.87182 4.4019 1.92195 4.45133C1.97209 4.50076 2.03154 4.53974 2.09687 4.56599C2.1622 4.59224 2.23209 4.60524 2.30249 4.60425H3.05993L3.95158 13.823C4.04758 14.817 4.89208 15.5834 5.8905 15.5834H11.1096C12.1081 15.5834 12.9526 14.8171 13.0485 13.823L13.9409 4.60425H14.6983C14.7687 4.60524 14.8386 4.59224 14.9039 4.56599C14.9693 4.53974 15.0287 4.50076 15.0789 4.45133C15.129 4.4019 15.1688 4.343 15.196 4.27805C15.2231 4.2131 15.2371 4.1434 15.2371 4.073C15.2371 4.00259 15.2231 3.93289 15.196 3.86794C15.1688 3.80299 15.129 3.74409 15.0789 3.69466C15.0287 3.64523 14.9693 3.60626 14.9039 3.58001C14.8386 3.55376 14.7687 3.54075 14.6983 3.54175H13.5452C13.4889 3.53261 13.4314 3.53261 13.375 3.54175H10.9512C10.7776 2.34517 9.74293 1.41675 8.50041 1.41675ZM8.50041 2.47925C9.16594 2.47925 9.71193 2.92839 9.86796 3.54175H7.13285C7.28888 2.92839 7.83487 2.47925 8.50041 2.47925ZM4.12659 4.60425H12.8735L11.9909 13.7206C11.9466 14.1793 11.5703 14.5209 11.1096 14.5209H5.8905C5.43047 14.5209 5.05348 14.1787 5.00923 13.7206L4.12659 4.60425ZM7.25252 6.36747C7.11175 6.36967 6.9776 6.42766 6.87955 6.52869C6.78149 6.62973 6.72755 6.76555 6.72957 6.90633V12.2188C6.72858 12.2892 6.74158 12.3591 6.76783 12.4244C6.79408 12.4898 6.83306 12.5492 6.88249 12.5994C6.93192 12.6495 6.99082 12.6893 7.05577 12.7165C7.12072 12.7437 7.19042 12.7576 7.26082 12.7576C7.33123 12.7576 7.40093 12.7437 7.46588 12.7165C7.53083 12.6893 7.58973 12.6495 7.63916 12.5994C7.68859 12.5492 7.72756 12.4898 7.75381 12.4244C7.78006 12.3591 7.79307 12.2892 7.79207 12.2188V6.90633C7.79309 6.83523 7.77983 6.76464 7.75306 6.69876C7.7263 6.63287 7.68659 6.57303 7.63627 6.52278C7.58595 6.47253 7.52606 6.43289 7.46014 6.40621C7.39423 6.37954 7.32362 6.36636 7.25252 6.36747ZM9.73169 6.36747C9.59091 6.36967 9.45677 6.42766 9.35871 6.52869C9.26066 6.62973 9.20672 6.76555 9.20874 6.90633V12.2188C9.20774 12.2892 9.22075 12.3591 9.247 12.4244C9.27325 12.4898 9.31222 12.5492 9.36165 12.5994C9.41108 12.6495 9.46998 12.6893 9.53493 12.7165C9.59988 12.7437 9.66958 12.7576 9.73999 12.7576C9.81039 12.7576 9.88009 12.7437 9.94504 12.7165C10.01 12.6893 10.0689 12.6495 10.1183 12.5994C10.1678 12.5492 10.2067 12.4898 10.233 12.4244C10.2592 12.3591 10.2722 12.2892 10.2712 12.2188V6.90633C10.2723 6.83523 10.259 6.76464 10.2322 6.69876C10.2055 6.63287 10.1658 6.57303 10.1154 6.52278C10.0651 6.47253 10.0052 6.43289 9.93931 6.40621C9.87339 6.37954 9.80279 6.36636 9.73169 6.36747Z" fill="#FAFBFB"/>
</svg>
