<svg width="20" height="20" viewBox="0 0 20 20" fill="none" xmlns="http://www.w3.org/2000/svg">
<path d="M9.87484 6.45835H9.87489L9.87479 6.45118C9.87431 6.41804 9.88701 6.38607 9.91009 6.36229C9.93317 6.33851 9.96475 6.32486 9.99788 6.32434C10.0146 6.32408 10.0312 6.32718 10.0468 6.33346L10.2343 5.86998L10.0468 6.33346C10.0623 6.33974 10.0764 6.34907 10.0882 6.3609C10.1001 6.37273 10.1094 6.38681 10.1157 6.40232C10.122 6.41783 10.1251 6.43444 10.1249 6.45118L10.1248 6.45118V6.45835V9.37502V9.87502H10.6248H13.5415V9.87507L13.5486 9.87497C13.5651 9.87474 13.5816 9.8778 13.597 9.88398C13.6124 9.89015 13.6263 9.89933 13.6381 9.91096C13.6499 9.9226 13.6593 9.93647 13.6657 9.95175L14.127 9.75878L13.6657 9.95176C13.6721 9.96704 13.6754 9.98345 13.6754 10C13.6754 10.0166 13.6721 10.033 13.6657 10.0483L13.6657 10.0483C13.6593 10.0636 13.65 10.0774 13.6381 10.0891C13.6263 10.1007 13.6124 10.1099 13.597 10.1161C13.5816 10.1222 13.5651 10.1253 13.5486 10.1251L13.5486 10.125H13.5415H10.6248H10.1248V10.625V13.5417H10.1248L10.1249 13.5488C10.1251 13.5653 10.1221 13.5818 10.1159 13.5972C10.1097 13.6125 10.1005 13.6265 10.0889 13.6383C10.0773 13.6501 10.0634 13.6595 10.0481 13.6659L10.0481 13.6659C10.0328 13.6723 10.0164 13.6756 9.99984 13.6756C9.98326 13.6756 9.96686 13.6723 9.95157 13.6659L9.7704 14.0989L9.95157 13.6659C9.93628 13.6595 9.92242 13.6501 9.91078 13.6383C9.89915 13.6265 9.88997 13.6125 9.88379 13.5972C9.87761 13.5818 9.87455 13.5653 9.87479 13.5488L9.87484 13.5488V13.5417V10.625V10.125H9.37484H6.45817V10.125L6.4511 10.1251C6.43453 10.1253 6.41808 10.1222 6.4027 10.1161C6.38732 10.1099 6.37333 10.1007 6.36153 10.0891C6.34972 10.0774 6.34035 10.0636 6.33396 10.0483L5.8727 10.2413L6.33396 10.0483C6.32756 10.033 6.32427 10.0166 6.32427 10C6.32427 9.98345 6.32756 9.96704 6.33396 9.95175C6.34035 9.93647 6.34972 9.9226 6.36153 9.91096C6.37333 9.89933 6.38732 9.89016 6.4027 9.88398C6.41808 9.8778 6.43453 9.87474 6.4511 9.87497L6.4511 9.87502H6.45817H9.37484H9.87484V9.37502V6.45835ZM2.1665 10C2.1665 5.68119 5.68101 2.16669 9.99984 2.16669C14.3187 2.16669 17.8332 5.68119 17.8332 10C17.8332 14.3188 14.3187 17.8334 9.99984 17.8334C5.68101 17.8334 2.1665 14.3188 2.1665 10ZM17.5832 10C17.5832 5.80446 14.1954 2.41669 9.99984 2.41669C5.80427 2.41669 2.4165 5.80446 2.4165 10C2.4165 14.1956 5.80427 17.5834 9.99984 17.5834C14.1954 17.5834 17.5832 14.1956 17.5832 10Z" fill="#5737C2" stroke="#5737C2"/>
</svg>
