<svg width="24" height="24" viewBox="0 0 24 24" fill="none" xmlns="http://www.w3.org/2000/svg">
<path d="M11.75 7.75H11.7501L11.7499 7.74283C11.749 7.67657 11.7744 7.61264 11.8205 7.56508C11.8667 7.51752 11.9298 7.49023 11.9961 7.4892C12.0296 7.48867 12.0628 7.49487 12.0938 7.50743C12.1248 7.51999 12.153 7.53865 12.1767 7.5623C12.2004 7.58595 12.2191 7.61412 12.2317 7.64513C12.2443 7.67614 12.2505 7.70936 12.2501 7.74283L12.25 7.74283V7.75V11.25V11.75H12.75H16.25V11.75L16.2571 11.75C16.2902 11.7495 16.3231 11.7556 16.3538 11.768C16.3846 11.7803 16.4126 11.7987 16.4362 11.8219C16.4598 11.8452 16.4785 11.8729 16.4913 11.9035C16.5041 11.9341 16.5107 11.9669 16.5107 12C16.5107 12.0331 16.5041 12.0659 16.4913 12.0965C16.4785 12.1271 16.4598 12.1548 16.4362 12.1781C16.4126 12.2013 16.3846 12.2197 16.3538 12.232C16.3231 12.2444 16.2902 12.2505 16.2571 12.25L16.2571 12.25H16.25H12.75H12.25V12.75V16.25H12.25L12.25 16.2571C12.2505 16.2902 12.2444 16.3231 12.232 16.3538C12.2197 16.3846 12.2013 16.4126 12.1781 16.4362C12.1548 16.4598 12.1271 16.4785 12.0965 16.4913C12.0659 16.5041 12.0331 16.5107 12 16.5107C11.9669 16.5107 11.9341 16.5041 11.9035 16.4913C11.8729 16.4785 11.8452 16.4598 11.8219 16.4362C11.7987 16.4126 11.7803 16.3846 11.768 16.3538C11.7556 16.3231 11.7495 16.2902 11.75 16.2571L11.75 16.2571V16.25V12.75V12.25H11.25H7.75V12.25L7.74293 12.25C7.70979 12.2505 7.6769 12.2444 7.64615 12.232C7.6154 12.2197 7.58741 12.2013 7.56382 12.1781C7.54022 12.1548 7.52148 12.1271 7.50869 12.0965C7.4959 12.0659 7.48932 12.0331 7.48932 12C7.48932 11.9669 7.4959 11.9341 7.50869 11.9035C7.52148 11.8729 7.54022 11.8452 7.56382 11.8219C7.58741 11.7987 7.6154 11.7803 7.64615 11.768C7.6769 11.7556 7.70979 11.7495 7.74293 11.75L7.74293 11.75H7.75H11.25H11.75V11.25V7.75ZM2.5 12C2.5 6.76218 6.76218 2.5 12 2.5C17.2378 2.5 21.5 6.76218 21.5 12C21.5 17.2378 17.2378 21.5 12 21.5C6.76218 21.5 2.5 17.2378 2.5 12ZM21 12C21 7.02055 16.9795 3 12 3C7.02055 3 3 7.02055 3 12C3 16.9794 7.02055 21 12 21C16.9795 21 21 16.9794 21 12Z" fill="#651DB9" stroke="#651DB9"/>
</svg>
