<svg width="60" height="60" viewBox="0 0 60 60" fill="none" xmlns="http://www.w3.org/2000/svg">
<g opacity="0.5">
<path d="M28.625 19.375H28.625L28.6249 19.3678C28.6197 19.0034 28.7593 18.6519 29.0131 18.3904C29.2669 18.1289 29.6141 17.9788 29.9785 17.9731C30.1626 17.9702 30.3453 18.0043 30.5159 18.0734C30.6865 18.1424 30.8415 18.245 30.9718 18.3751C31.102 18.5051 31.2048 18.66 31.2741 18.8306C31.3434 19.0011 31.3777 19.1838 31.375 19.3678L31.375 19.3678V19.375V28.125V28.625H31.875L40.625 28.625L40.6321 28.6249C40.8143 28.6224 40.9952 28.656 41.1643 28.724C41.3334 28.7919 41.4873 28.8928 41.617 29.0207C41.7468 29.1487 41.8498 29.3011 41.9202 29.4692C41.9905 29.6374 42.0267 29.8178 42.0267 30C42.0267 30.1822 41.9905 30.3626 41.9202 30.5307C41.8498 30.6989 41.7468 30.8513 41.617 30.9793C41.4873 31.1072 41.3334 31.2081 41.1643 31.276C40.9952 31.344 40.8143 31.3776 40.6321 31.375V31.375H40.625H31.875H31.375V31.875L31.3749 40.625L31.375 40.6321C31.3776 40.8143 31.344 40.9952 31.276 41.1643C31.2081 41.3334 31.1072 41.4873 30.9793 41.617C30.8513 41.7468 30.6989 41.8498 30.5308 41.9202C30.3626 41.9905 30.1822 42.0267 30 42.0267C29.8178 42.0267 29.6374 41.9905 29.4692 41.9202C29.3011 41.8498 29.1487 41.7468 29.0207 41.617C28.8928 41.4873 28.7919 41.3334 28.724 41.1643C28.656 40.9952 28.6224 40.8143 28.6249 40.6321H28.625V40.625V31.875V31.375H28.125H19.375V31.3749L19.3679 31.375C19.1857 31.3776 19.0048 31.344 18.8357 31.276C18.6666 31.2081 18.5127 31.1072 18.383 30.9793C18.2532 30.8513 18.1502 30.6989 18.0798 30.5308C18.0095 30.3626 17.9733 30.1822 17.9733 30C17.9733 29.8178 18.0095 29.6374 18.0798 29.4692C18.1502 29.3011 18.2532 29.1487 18.383 29.0207L18.0319 28.6647L18.383 29.0207C18.5127 28.8928 18.6666 28.7919 18.8357 28.724C19.0048 28.656 19.1857 28.6224 19.3679 28.6249L19.3679 28.625H19.375H28.125H28.625V28.125V19.375ZM5.5 30C5.5 16.4912 16.4912 5.5 30 5.5C43.5088 5.5 54.5 16.4912 54.5 30C54.5 43.5088 43.5088 54.5 30 54.5C16.4912 54.5 5.5 43.5088 5.5 30ZM51.75 30C51.75 17.9656 42.0344 8.25 30 8.25C17.9656 8.25 8.25 17.9656 8.25 30C8.25 42.0344 17.9656 51.75 30 51.75C42.0344 51.75 51.75 42.0344 51.75 30Z" fill="#FAFBFB" stroke="#FAFBFB"/>
</g>
</svg>
