<svg width="14" height="14" viewBox="0 0 14 14" fill="none" xmlns="http://www.w3.org/2000/svg">
<g clip-path="url(#clip0_520_3865)">
<path d="M1.43928 10.5063C1.55362 10.5036 1.66224 10.4555 1.74144 10.3726L7.06367 5.02344L12.3859 10.3726C12.4262 10.4143 12.4745 10.4475 12.5279 10.4702C12.5812 10.4929 12.6386 10.5046 12.6965 10.5046C12.7827 10.5046 12.8669 10.4787 12.9383 10.4303C13.0098 10.3819 13.0653 10.3132 13.0976 10.233C13.13 10.1527 13.1379 10.0646 13.1201 9.97985C13.1024 9.8951 13.0599 9.8176 12.9981 9.75726L7.36977 4.10047C7.28858 4.0189 7.17847 3.97307 7.06367 3.97307C6.94886 3.97307 6.83875 4.0189 6.75756 4.10047L1.12922 9.75726C1.06627 9.81799 1.02304 9.89643 1.0052 9.98229C0.987365 10.0681 0.995758 10.1574 1.02928 10.2384C1.0628 10.3194 1.11988 10.3883 1.19305 10.4361C1.26621 10.4839 1.35204 10.5084 1.43928 10.5063Z" fill="#FAFBFB"/>
</g>
<defs>
<clipPath id="clip0_520_3865">
<rect width="14" height="14" fill="white" transform="translate(14 14) rotate(-180)"/>
</clipPath>
</defs>
</svg>
