<svg width="20" height="20" viewBox="0 0 20 20" fill="none" xmlns="http://www.w3.org/2000/svg">
<path d="M14.1666 3.33331C13.7066 3.33331 13.3333 3.70665 13.3333 4.16665V15.8333C13.3333 16.2933 13.7066 16.6666 14.1666 16.6666H17.5C17.96 16.6666 18.3333 16.2933 18.3333 15.8333V4.16665C18.3333 3.70665 17.96 3.33331 17.5 3.33331H14.1666ZM15 4.99998H16.6666V15H15V4.99998ZM8.33329 6.66665C7.87329 6.66665 7.49996 7.03998 7.49996 7.49998V15.8333C7.49996 16.2933 7.87329 16.6666 8.33329 16.6666H11.6666C12.1266 16.6666 12.5 16.2933 12.5 15.8333V7.49998C12.5 7.03998 12.1266 6.66665 11.6666 6.66665H8.33329ZM9.16663 8.33331H10.8333V15H9.16663V8.33331ZM2.49996 9.99998C2.03996 9.99998 1.66663 10.3733 1.66663 10.8333V15.8333C1.66663 16.2933 2.03996 16.6666 2.49996 16.6666H5.83329C6.29329 16.6666 6.66663 16.2933 6.66663 15.8333V10.8333C6.66663 10.3733 6.29329 9.99998 5.83329 9.99998H2.49996ZM3.33329 11.6666H4.99996V15H3.33329V11.6666Z" fill="#FAFBFB"/>
</svg>
