<svg width="20" height="20" viewBox="0 0 20 20" fill="none" xmlns="http://www.w3.org/2000/svg">
<path d="M14.3408 0.416713C14.2074 0.41237 14.076 0.450875 13.9661 0.526587C13.8561 0.602299 13.7732 0.711238 13.7297 0.837448L12.8776 3.30571C11.8172 2.79516 10.6311 2.50005 9.375 2.50005C4.89513 2.50005 1.25 6.14518 1.25 10.625C1.25 15.1049 4.89513 18.75 9.375 18.75C13.8549 18.75 17.5 15.1049 17.5 10.625C17.5 9.36937 17.2054 8.18343 16.6952 7.12326L19.1626 6.2712C19.2402 6.24439 19.3117 6.20255 19.3732 6.14808C19.4346 6.0936 19.4847 6.02757 19.5206 5.95373C19.5565 5.8799 19.5775 5.79972 19.5824 5.71777C19.5873 5.63582 19.576 5.55371 19.5492 5.47612C18.7367 3.1215 16.8781 1.26333 14.5239 0.450892C14.4649 0.430418 14.4032 0.418897 14.3408 0.416713ZM14.6842 1.90434C16.2021 2.5917 17.4084 3.7984 18.0957 5.31661L12.8849 7.11512L14.6842 1.90434ZM8.75 3.78178V10H2.53174C2.82831 6.69673 5.44669 4.07836 8.75 3.78178ZM10 3.7826C10.8816 3.86346 11.7127 4.11027 12.4674 4.49386L11.2842 7.92078C11.2458 8.03162 11.2394 8.15102 11.2657 8.26532C11.292 8.37962 11.35 8.48421 11.4329 8.56715C11.5158 8.65008 11.6204 8.70801 11.7347 8.73431C11.849 8.76061 11.9684 8.75422 12.0793 8.71587L15.5062 7.53341C15.9792 8.46443 16.25 9.51 16.25 10.625C16.25 12.3017 15.6526 13.8345 14.6598 15.0261L10 10.3663V3.7826ZM2.53174 11.25H9.11621L13.776 15.9099C12.5845 16.9027 11.0516 17.5 9.375 17.5C5.78181 17.5 2.84682 14.7595 2.53174 11.25Z" fill="#FAFBFB"/>
</svg>
