<svg width="18" height="19" viewBox="0 0 18 19" fill="none" xmlns="http://www.w3.org/2000/svg">
<path d="M8.67064 2.27393C4.68635 2.27393 1.44482 5.51545 1.44482 9.49974C1.44482 13.484 4.68635 16.7256 8.67064 16.7256C12.6549 16.7256 15.8965 13.484 15.8965 9.49974C15.8965 5.51545 12.6549 2.27393 8.67064 2.27393ZM8.67064 3.3578C12.0692 3.3578 14.8126 6.10122 14.8126 9.49974C14.8126 12.8983 12.0692 15.6417 8.67064 15.6417C5.27212 15.6417 2.5287 12.8983 2.5287 9.49974C2.5287 6.10122 5.27212 3.3578 8.67064 3.3578ZM8.12023 5.15649C7.97663 5.15873 7.83978 5.21789 7.73976 5.32095C7.63973 5.42402 7.58471 5.56258 7.58677 5.70619V9.68039C7.58679 9.82411 7.6439 9.96193 7.74554 10.0636L9.55199 11.87C9.60193 11.922 9.66174 11.9635 9.72793 11.9921C9.79411 12.0207 9.86534 12.0359 9.93744 12.0366C10.0095 12.0373 10.0811 12.0237 10.1478 11.9964C10.2146 11.9692 10.2752 11.9289 10.3262 11.8779C10.3772 11.8269 10.4175 11.7662 10.4447 11.6995C10.472 11.6327 10.4856 11.5612 10.4849 11.4891C10.4842 11.417 10.4691 11.3458 10.4405 11.2796C10.4119 11.2134 10.3703 11.1536 10.3183 11.1037L8.67064 9.45599V5.70619C8.67168 5.63365 8.65815 5.56165 8.63085 5.49444C8.60355 5.42723 8.56303 5.36618 8.5117 5.31492C8.46037 5.26366 8.39928 5.22322 8.33203 5.19601C8.26479 5.16879 8.19277 5.15536 8.12023 5.15649Z" fill="#FAFBFB"/>
</svg>
