<svg width="20" height="20" viewBox="0 0 20 20" fill="none" xmlns="http://www.w3.org/2000/svg">
<path d="M16.4522 2.90771C16.2872 2.9116 16.1304 2.98065 16.016 3.09976L9.99961 9.1162L3.98317 3.09976C3.92491 3.03977 3.85521 2.99207 3.77819 2.9595C3.70117 2.92693 3.61839 2.91015 3.53477 2.91015C3.41038 2.91018 3.28883 2.94732 3.18568 3.01681C3.08252 3.08631 3.00244 3.18501 2.95569 3.30027C2.90894 3.41553 2.89764 3.54212 2.92323 3.66384C2.94883 3.78557 3.01016 3.89688 3.09938 3.98355L9.11582 9.99999L3.09938 16.0164C3.0394 16.074 2.99151 16.143 2.95852 16.2193C2.92553 16.2957 2.9081 16.3778 2.90726 16.461C2.90641 16.5441 2.92217 16.6266 2.9536 16.7036C2.98503 16.7806 3.0315 16.8505 3.0903 16.9093C3.1491 16.9681 3.21904 17.0146 3.29603 17.046C3.37301 17.0774 3.45549 17.0932 3.53864 17.0923C3.62179 17.0915 3.70394 17.0741 3.78027 17.0411C3.8566 17.0081 3.92558 16.9602 3.98317 16.9002L9.99961 10.8838L16.016 16.9002C16.0736 16.9602 16.1426 17.0081 16.2189 17.0411C16.2953 17.0741 16.3774 17.0915 16.4606 17.0923C16.5437 17.0932 16.6262 17.0774 16.7032 17.046C16.7802 17.0146 16.8501 16.9681 16.9089 16.9093C16.9677 16.8505 17.0142 16.7806 17.0456 16.7036C17.077 16.6266 17.0928 16.5441 17.092 16.461C17.0911 16.3778 17.0737 16.2957 17.0407 16.2193C17.0077 16.143 16.9598 16.074 16.8998 16.0164L10.8834 9.99999L16.8998 3.98355C16.9907 3.89632 17.0531 3.78366 17.0789 3.66034C17.1046 3.53703 17.0925 3.40881 17.0441 3.2925C16.9957 3.17618 16.9133 3.07721 16.8077 3.00854C16.7021 2.93988 16.5782 2.90473 16.4522 2.90771Z" fill="#FAFBFB"/>
</svg>
