<svg width="20" height="20" viewBox="0 0 20 20" fill="none" xmlns="http://www.w3.org/2000/svg">
<path d="M15.0001 2.0874C14.2523 2.0874 13.5046 2.37089 12.9379 2.93783L3.71512 12.1598C3.54013 12.3348 3.41197 12.5524 3.34403 12.7913L2.10786 17.12C2.07738 17.2271 2.07606 17.3404 2.10405 17.4482C2.13204 17.556 2.18831 17.6543 2.26706 17.7331C2.34581 17.8118 2.44416 17.8681 2.55195 17.8961C2.65974 17.9241 2.77305 17.9227 2.88016 17.8923L7.20959 16.6561C7.20986 16.6558 7.21013 16.6555 7.2104 16.6553C7.4477 16.5871 7.66478 16.4605 7.84028 16.285L17.0623 7.06217C18.1961 5.92837 18.1961 4.07163 17.0623 2.93783C16.4956 2.37089 15.7479 2.0874 15.0001 2.0874ZM15.0001 3.33008C15.4254 3.33008 15.8502 3.49397 16.1777 3.82161C16.178 3.82161 16.1782 3.82161 16.1785 3.82161C16.8347 4.47781 16.8347 5.52219 16.1785 6.17839L15.3704 6.98649L13.0136 4.62972L13.8217 3.82161C14.1492 3.49397 14.5748 3.33008 15.0001 3.33008ZM12.1298 5.51351L14.4866 7.87028L6.95568 15.4012C6.93125 15.4255 6.90031 15.444 6.86535 15.4541L3.61828 16.3818L4.54601 13.134C4.54601 13.1337 4.54601 13.1334 4.54601 13.1331C4.55557 13.0995 4.57307 13.0695 4.59891 13.0436L12.1298 5.51351Z" fill="#FAFBFB"/>
</svg>
