<svg width="20" height="20" viewBox="0 0 20 20" fill="none" xmlns="http://www.w3.org/2000/svg">
<path d="M10.0001 1.66699C5.40511 1.66699 1.66675 5.40536 1.66675 10.0003C1.66675 14.5953 5.40511 18.3337 10.0001 18.3337C14.5951 18.3337 18.3334 14.5953 18.3334 10.0003C18.3334 5.40536 14.5951 1.66699 10.0001 1.66699ZM10.0001 2.91699C13.9195 2.91699 17.0834 6.0809 17.0834 10.0003C17.0834 13.9197 13.9195 17.0837 10.0001 17.0837C6.08066 17.0837 2.91675 13.9197 2.91675 10.0003C2.91675 6.0809 6.08066 2.91699 10.0001 2.91699ZM9.99032 5.40804C9.8247 5.41063 9.66688 5.47885 9.55152 5.59771C9.43616 5.71658 9.37271 5.87637 9.37508 6.04199V11.042C9.37391 11.1248 9.38921 11.207 9.42009 11.2839C9.45098 11.3607 9.49683 11.4307 9.55498 11.4897C9.61313 11.5487 9.68243 11.5955 9.75884 11.6275C9.83525 11.6594 9.91725 11.6759 10.0001 11.6759C10.0829 11.6759 10.1649 11.6594 10.2413 11.6275C10.3177 11.5955 10.387 11.5487 10.4452 11.4897C10.5033 11.4307 10.5492 11.3607 10.5801 11.2839C10.611 11.207 10.6263 11.1248 10.6251 11.042V6.04199C10.6263 5.95834 10.6107 5.8753 10.5792 5.79779C10.5477 5.72028 10.501 5.64988 10.4418 5.59076C10.3826 5.53164 10.3121 5.485 10.2346 5.45362C10.157 5.42223 10.074 5.40673 9.99032 5.40804ZM10.0001 12.917C9.77907 12.917 9.56711 13.0048 9.41083 13.1611C9.25455 13.3174 9.16675 13.5293 9.16675 13.7503C9.16675 13.9713 9.25455 14.1833 9.41083 14.3396C9.56711 14.4959 9.77907 14.5837 10.0001 14.5837C10.2211 14.5837 10.4331 14.4959 10.5893 14.3396C10.7456 14.1833 10.8334 13.9713 10.8334 13.7503C10.8334 13.5293 10.7456 13.3174 10.5893 13.1611C10.4331 13.0048 10.2211 12.917 10.0001 12.917Z" fill="#FF5458"/>
</svg>
