<svg width="20" height="20" viewBox="0 0 20 20" fill="none" xmlns="http://www.w3.org/2000/svg">
<path d="M12.6845 2.26806C12.649 2.26858 12.6136 2.27212 12.5787 2.27864L3.99062 3.74104C2.89314 3.92767 2.08307 4.88723 2.08307 6.00016V13.125C2.0819 13.2078 2.0972 13.29 2.12808 13.3669C2.15897 13.4438 2.20482 13.5137 2.26297 13.5727C2.32112 13.6317 2.39042 13.6785 2.46683 13.7105C2.54324 13.7424 2.62524 13.7589 2.70807 13.7589C2.7909 13.7589 2.8729 13.7424 2.94931 13.7105C3.02572 13.6785 3.09502 13.6317 3.15317 13.5727C3.21132 13.5137 3.25717 13.4438 3.28806 13.3669C3.31894 13.29 3.33424 13.2078 3.33307 13.125V6.00016C3.33307 5.48808 3.69476 5.05901 4.19977 4.97314L12.7886 3.51074C12.9449 3.48648 13.0862 3.40387 13.184 3.27956C13.2818 3.15524 13.3289 2.99848 13.3157 2.84086C13.3024 2.68324 13.23 2.53649 13.1128 2.43019C12.9957 2.32389 12.8426 2.26596 12.6845 2.26806ZM15.1845 4.35139C15.149 4.35191 15.1136 4.35545 15.0787 4.36197L6.49062 5.82438C5.39314 6.011 4.58307 6.97056 4.58307 8.08349V15.2083C4.5819 15.2911 4.5972 15.3734 4.62808 15.4502C4.65897 15.5271 4.70482 15.597 4.76297 15.656C4.82112 15.715 4.89042 15.7618 4.96683 15.7938C5.04324 15.8258 5.12524 15.8422 5.20807 15.8422C5.2909 15.8422 5.3729 15.8258 5.44931 15.7938C5.52572 15.7618 5.59502 15.715 5.65317 15.656C5.71132 15.597 5.75717 15.5271 5.78806 15.4502C5.81894 15.3734 5.83424 15.2911 5.83307 15.2083V8.08349C5.83307 7.57142 6.19476 7.14235 6.69977 7.05647L15.2886 5.59407C15.4449 5.56981 15.5862 5.4872 15.684 5.36289C15.7818 5.23858 15.8289 5.08181 15.8157 4.92419C15.8024 4.76657 15.73 4.61982 15.6128 4.51352C15.4957 4.40723 15.3426 4.34929 15.1845 4.35139ZM16.3515 6.66992C16.2814 6.67369 16.2107 6.68147 16.1399 6.69352L8.99388 7.9069C7.89555 8.09384 7.08307 9.05304 7.08307 10.1668V16.0417C7.08307 17.1917 8.1425 18.0825 9.27627 17.8898L16.4223 16.6764C17.5206 16.4895 18.3331 15.5303 18.3331 14.4165V8.54166C18.3331 7.46352 17.402 6.61324 16.3515 6.66992ZM16.4955 7.91666C16.8254 7.93156 17.0831 8.19314 17.0831 8.54166V14.4165C17.0831 14.9277 16.7206 15.3571 16.2131 15.4435L9.06712 16.6577C9.06685 16.6577 9.06658 16.6577 9.06631 16.6577C8.67009 16.725 8.33307 16.44 8.33307 16.0417V10.1668C8.33307 9.65561 8.69552 9.22619 9.20302 9.13981L16.349 7.92561C16.3493 7.92561 16.3496 7.92561 16.3498 7.92561C16.3994 7.9172 16.4484 7.91453 16.4955 7.91666Z" fill="#FAFBFB"/>
</svg>
