<svg width="20" height="20" viewBox="0 0 20 20" fill="none" xmlns="http://www.w3.org/2000/svg">
<path d="M10.0004 1.66669C7.27712 1.66669 4.85503 2.97884 3.33372 5.0049V3.54169C3.33492 3.45803 3.31932 3.37499 3.28783 3.29748C3.25635 3.21997 3.20962 3.14957 3.15043 3.09045C3.09123 3.03133 3.02077 2.9847 2.94322 2.95331C2.86567 2.92193 2.78261 2.90643 2.69896 2.90774C2.53334 2.91032 2.37552 2.97854 2.26016 3.09741C2.14481 3.21627 2.08135 3.37607 2.08372 3.54169V6.45835C2.08374 6.62411 2.14959 6.78307 2.2668 6.90028C2.384 7.01748 2.54297 7.08334 2.70872 7.08335H5.62539C5.70821 7.08452 5.79043 7.06922 5.86729 7.03834C5.94414 7.00746 6.0141 6.96161 6.07308 6.90345C6.13206 6.8453 6.17889 6.77601 6.21086 6.69959C6.24283 6.62318 6.25929 6.54118 6.25929 6.45835C6.25929 6.37553 6.24283 6.29352 6.21086 6.21711C6.17889 6.1407 6.13206 6.07141 6.07308 6.01325C6.0141 5.9551 5.94414 5.90925 5.86729 5.87837C5.79043 5.84748 5.70821 5.83218 5.62539 5.83335H4.27122C5.55834 4.06594 7.64171 2.91669 10.0004 2.91669C13.9197 2.91669 17.0837 6.08073 17.0837 10C17.0837 13.9193 13.9197 17.0834 10.0004 17.0834C6.0811 17.0834 2.91705 13.9193 2.91705 10C2.91823 9.9172 2.90293 9.83497 2.87204 9.75812C2.84116 9.68126 2.79531 9.61131 2.73715 9.55233C2.679 9.49335 2.60971 9.44652 2.5333 9.41455C2.45689 9.38258 2.37488 9.36612 2.29205 9.36612C2.20923 9.36612 2.12722 9.38258 2.05081 9.41455C1.9744 9.44652 1.90511 9.49335 1.84695 9.55233C1.7888 9.61131 1.74295 9.68126 1.71207 9.75812C1.68118 9.83497 1.66588 9.9172 1.66705 10C1.66705 14.5949 5.40551 18.3334 10.0004 18.3334C14.5953 18.3334 18.3337 14.5949 18.3337 10C18.3337 5.40514 14.5953 1.66669 10.0004 1.66669ZM9.78229 5.40774C9.61667 5.41032 9.45885 5.47854 9.34349 5.59741C9.22814 5.71627 9.16468 5.87607 9.16705 6.04169V11.0417C9.16707 11.2074 9.23292 11.3664 9.35013 11.4836C9.46734 11.6008 9.6263 11.6667 9.79205 11.6667H13.1254C13.2082 11.6679 13.2904 11.6526 13.3673 11.6217C13.4441 11.5908 13.5141 11.5449 13.5731 11.4868C13.6321 11.4286 13.6789 11.3593 13.7109 11.2829C13.7428 11.2065 13.7593 11.1245 13.7593 11.0417C13.7593 10.9589 13.7428 10.8769 13.7109 10.8004C13.6789 10.724 13.6321 10.6547 13.5731 10.5966C13.5141 10.5384 13.4441 10.4926 13.3673 10.4617C13.2904 10.4308 13.2082 10.4155 13.1254 10.4167H10.4171V6.04169C10.4183 5.95803 10.4026 5.87499 10.3712 5.79748C10.3397 5.71997 10.293 5.64957 10.2338 5.59045C10.1746 5.53133 10.1041 5.4847 10.0266 5.45331C9.949 5.42193 9.86594 5.40643 9.78229 5.40774Z" fill="#FAFBFB"/>
</svg>
