<svg width="20" height="20" viewBox="0 0 20 20" fill="none" xmlns="http://www.w3.org/2000/svg">
<path d="M9.99996 0.666687V2.33335H9.16663C8.94562 2.33338 8.73367 2.42118 8.57739 2.57746C8.42112 2.73373 8.33331 2.94568 8.33329 3.16669V8.33335C8.33331 8.55436 8.42112 8.76631 8.57739 8.92258C8.73367 9.07886 8.94562 9.16667 9.16663 9.16669H9.99996V10.8334H11.6666V9.16669H12.5C12.721 9.16667 12.9329 9.07886 13.0892 8.92258C13.2455 8.76631 13.3333 8.55436 13.3333 8.33335V3.16669C13.3333 2.94568 13.2455 2.73373 13.0892 2.57746C12.9329 2.42118 12.721 2.33338 12.5 2.33335H11.6666V0.666687H9.99996ZM9.99996 4.00002H11.6666V7.50002H9.99996V4.00002ZM3.33329 7.50002V9.16669H2.49996C2.27895 9.16671 2.067 9.25451 1.91073 9.41079C1.75445 9.56707 1.66665 9.77901 1.66663 10V15.1667C1.66665 15.3877 1.75445 15.5996 1.91073 15.7559C2.067 15.9122 2.27895 16 2.49996 16H3.33329V17.6667H4.99996V16H5.83329C6.0543 16 6.26625 15.9122 6.42252 15.7559C6.5788 15.5996 6.6666 15.3877 6.66663 15.1667V10C6.6666 9.77901 6.5788 9.56707 6.42252 9.41079C6.26625 9.25451 6.0543 9.16671 5.83329 9.16669H4.99996V7.50002H3.33329ZM15 9.16669V10.8334H14.1666C13.9456 10.8334 13.7337 10.9212 13.5774 11.0775C13.4211 11.2337 13.3333 11.4457 13.3333 11.6667V16.8334C13.3333 17.0544 13.4211 17.2663 13.5774 17.4226C13.7337 17.5789 13.9456 17.6667 14.1666 17.6667H15V19.3334H16.6666V17.6667H17.5C17.721 17.6667 17.9329 17.5789 18.0892 17.4226C18.2455 17.2663 18.3333 17.0544 18.3333 16.8334V11.6667C18.3333 11.4457 18.2455 11.2337 18.0892 11.0775C17.9329 10.9212 17.721 10.8334 17.5 10.8334H16.6666V9.16669H15ZM3.33329 10.8334H4.99996V14.3334H3.33329V10.8334ZM15 12.5H16.6666V16H15V12.5Z" fill="#FAFBFB"/>
<path d="M15 12.5H16.6666V16H15V12.5Z" fill="#FAFBFB"/>
<path d="M3.33329 10.8334H4.99996V14.3334H3.33329V10.8334Z" fill="#FAFBFB"/>
</svg>
