<svg width="20" height="20" viewBox="0 0 20 20" fill="none" xmlns="http://www.w3.org/2000/svg">
<path d="M15.831 1.6665C14.6866 1.6665 13.746 2.60793 13.746 3.75228V16.2498C13.746 17.3942 14.6866 18.3356 15.831 18.3356C16.9753 18.3356 17.9167 17.3942 17.9167 16.2498V3.75228C17.9167 2.60793 16.9753 1.6665 15.831 1.6665ZM7.29173 2.08317C7.20891 2.082 7.12668 2.0973 7.04983 2.12818C6.97297 2.15907 6.90302 2.20492 6.84404 2.26307C6.78506 2.32122 6.73822 2.39052 6.70625 2.46693C6.67429 2.54334 6.65783 2.62534 6.65783 2.70817C6.65783 2.791 6.67429 2.873 6.70625 2.94941C6.73822 3.02582 6.78506 3.09512 6.84404 3.15327C6.90302 3.21142 6.97297 3.25727 7.04983 3.28816C7.12668 3.31904 7.20891 3.33434 7.29173 3.33317H8.6166L1.87669 9.32438C1.81299 9.3782 1.7607 9.44423 1.7229 9.51857C1.68511 9.5929 1.66257 9.67405 1.65662 9.75723C1.65067 9.84042 1.66143 9.92395 1.68825 10.0029C1.71508 10.0819 1.75743 10.1547 1.81282 10.217C1.86822 10.2794 1.93552 10.33 2.01078 10.3659C2.08603 10.4018 2.16772 10.4223 2.25102 10.4262C2.33433 10.4301 2.41757 10.4173 2.49584 10.3885C2.57411 10.3597 2.64582 10.3156 2.70677 10.2586L9.58339 4.14616V5.62484C9.58222 5.70766 9.59752 5.78988 9.62841 5.86674C9.65929 5.94359 9.70514 6.01355 9.76329 6.07253C9.82145 6.13151 9.89074 6.17834 9.96715 6.21031C10.0436 6.24228 10.1256 6.25874 10.2084 6.25874C10.2912 6.25874 10.3732 6.24228 10.4496 6.21031C10.526 6.17834 10.5953 6.13151 10.6535 6.07253C10.7116 6.01355 10.7575 5.94359 10.7884 5.86674C10.8193 5.78988 10.8346 5.70766 10.8334 5.62484V2.70817C10.8334 2.54242 10.7675 2.38345 10.6503 2.26625C10.5331 2.14904 10.3741 2.08319 10.2084 2.08317H7.29173ZM15.831 2.9165C16.2999 2.9165 16.6667 3.28329 16.6667 3.75228V16.2498C16.6667 16.7188 16.2999 17.0856 15.831 17.0856C15.362 17.0856 14.996 16.7188 14.996 16.2498V3.75228C14.996 3.28329 15.362 2.9165 15.831 2.9165ZM10.0001 7.9165C8.85571 7.9165 7.91429 8.85793 7.91429 10.0023V16.2498C7.91429 17.3942 8.85571 18.3356 10.0001 18.3356C11.1444 18.3356 12.0858 17.3942 12.0858 16.2498V10.0023C12.0858 8.85793 11.1444 7.9165 10.0001 7.9165ZM10.0001 9.1665C10.469 9.1665 10.8358 9.53329 10.8358 10.0023V16.2498C10.8358 16.7188 10.469 17.0856 10.0001 17.0856C9.53108 17.0856 9.16429 16.7188 9.16429 16.2498V10.0023C9.16429 9.53329 9.53108 9.1665 10.0001 9.1665ZM4.16429 11.6641C3.01994 11.6641 2.07932 12.6055 2.07932 13.7498V16.2498C2.07932 17.3942 3.01994 18.3356 4.16429 18.3356C5.30863 18.3356 6.25006 17.3942 6.25006 16.2498V13.7498C6.25006 12.6055 5.30863 11.6641 4.16429 11.6641ZM4.16429 12.9141C4.63327 12.9141 5.00006 13.2809 5.00006 13.7498V16.2498C5.00006 16.7188 4.63327 17.0856 4.16429 17.0856C3.6953 17.0856 3.32933 16.7188 3.32933 16.2498V13.7498C3.32933 13.2809 3.6953 12.9141 4.16429 12.9141Z" fill="#FAFBFB"/>
</svg>
