<svg width="20" height="20" viewBox="0 0 20 20" fill="none" xmlns="http://www.w3.org/2000/svg">
<path d="M3.9694 2.08328C3.88637 2.08178 3.80388 2.09683 3.72673 2.12757C3.64959 2.1583 3.57934 2.2041 3.52009 2.26228C3.46085 2.32047 3.41379 2.38988 3.38167 2.46646C3.34954 2.54303 3.333 2.62524 3.33301 2.70828V15.625C3.33301 16.8832 4.36644 17.9166 5.62467 17.9166H14.3747C15.6329 17.9166 16.6663 16.8832 16.6663 15.625V2.70828C16.6664 2.60414 16.6403 2.50163 16.5907 2.41009C16.541 2.31855 16.4693 2.24087 16.3819 2.18411C16.2946 2.12735 16.1945 2.09331 16.0907 2.08508C15.9868 2.07686 15.8826 2.0947 15.7874 2.137L14.1533 2.86372L12.3149 2.12804C12.166 2.06855 12 2.06855 11.8511 2.12804L9.99967 2.8686L8.14827 2.12804C7.99938 2.06855 7.83331 2.06855 7.68441 2.12804L5.84603 2.86372L4.21191 2.137C4.13548 2.10305 4.05302 2.08478 3.9694 2.08328ZM7.91634 3.3813L9.76774 4.12186C9.91664 4.18136 10.0827 4.18136 10.2316 4.12186L12.083 3.3813L13.9344 4.12186C14.0119 4.15288 14.0948 4.16806 14.1782 4.16653C14.2617 4.16499 14.344 4.14676 14.4202 4.11291L15.4163 3.6702V15.625C15.4163 16.2075 14.9573 16.6666 14.3747 16.6666H5.62467C5.04208 16.6666 4.58301 16.2075 4.58301 15.625V3.6702L5.5791 4.11291C5.65538 4.14676 5.73767 4.16499 5.82112 4.16653C5.90456 4.16806 5.98746 4.15288 6.06494 4.12186L7.91634 3.3813ZM6.45801 7.08328C6.37519 7.08211 6.29296 7.09741 6.21611 7.1283C6.13925 7.15918 6.0693 7.20503 6.01032 7.26318C5.95134 7.32134 5.9045 7.39063 5.87254 7.46704C5.84057 7.54345 5.82411 7.62546 5.82411 7.70828C5.82411 7.79111 5.84057 7.87311 5.87254 7.94953C5.9045 8.02594 5.95134 8.09523 6.01032 8.15338C6.0693 8.21154 6.13925 8.25739 6.21611 8.28827C6.29296 8.31915 6.37519 8.33446 6.45801 8.33328H13.5413C13.6242 8.33446 13.7064 8.31915 13.7832 8.28827C13.8601 8.25739 13.93 8.21154 13.989 8.15338C14.048 8.09523 14.0948 8.02594 14.1268 7.94953C14.1588 7.87311 14.1752 7.79111 14.1752 7.70828C14.1752 7.62546 14.1588 7.54345 14.1268 7.46704C14.0948 7.39063 14.048 7.32134 13.989 7.26318C13.93 7.20503 13.8601 7.15918 13.7832 7.1283C13.7064 7.09741 13.6242 7.08211 13.5413 7.08328H6.45801ZM6.45801 10.8333C6.37519 10.8321 6.29296 10.8474 6.21611 10.8783C6.13925 10.9092 6.0693 10.955 6.01032 11.0132C5.95134 11.0713 5.9045 11.1406 5.87254 11.217C5.84057 11.2935 5.82411 11.3755 5.82411 11.4583C5.82411 11.5411 5.84057 11.6231 5.87254 11.6995C5.9045 11.7759 5.95134 11.8452 6.01032 11.9034C6.0693 11.9615 6.13925 12.0074 6.21611 12.0383C6.29296 12.0692 6.37519 12.0845 6.45801 12.0833H10.208C10.2908 12.0845 10.3731 12.0692 10.4499 12.0383C10.5268 12.0074 10.5967 11.9615 10.6557 11.9034C10.7147 11.8452 10.7615 11.7759 10.7935 11.6995C10.8254 11.6231 10.8419 11.5411 10.8419 11.4583C10.8419 11.3755 10.8254 11.2935 10.7935 11.217C10.7615 11.1406 10.7147 11.0713 10.6557 11.0132C10.5967 10.955 10.5268 10.9092 10.4499 10.8783C10.3731 10.8474 10.2908 10.8321 10.208 10.8333H6.45801ZM12.708 10.8333C12.6252 10.8321 12.543 10.8474 12.4661 10.8783C12.3893 10.9092 12.3193 10.955 12.2603 11.0132C12.2013 11.0713 12.1545 11.1406 12.1225 11.217C12.0906 11.2935 12.0741 11.3755 12.0741 11.4583C12.0741 11.5411 12.0906 11.6231 12.1225 11.6995C12.1545 11.7759 12.2013 11.8452 12.2603 11.9034C12.3193 11.9615 12.3893 12.0074 12.4661 12.0383C12.543 12.0692 12.6252 12.0845 12.708 12.0833H13.5413C13.6242 12.0845 13.7064 12.0692 13.7832 12.0383C13.8601 12.0074 13.93 11.9615 13.989 11.9034C14.048 11.8452 14.0948 11.7759 14.1268 11.6995C14.1588 11.6231 14.1752 11.5411 14.1752 11.4583C14.1752 11.3755 14.1588 11.2935 14.1268 11.217C14.0948 11.1406 14.048 11.0713 13.989 11.0132C13.93 10.955 13.8601 10.9092 13.7832 10.8783C13.7064 10.8474 13.6242 10.8321 13.5413 10.8333H12.708ZM6.45801 13.3333C6.37519 13.3321 6.29296 13.3474 6.21611 13.3783C6.13925 13.4092 6.0693 13.455 6.01032 13.5132C5.95134 13.5713 5.9045 13.6406 5.87254 13.717C5.84057 13.7935 5.82411 13.8755 5.82411 13.9583C5.82411 14.0411 5.84057 14.1231 5.87254 14.1995C5.9045 14.2759 5.95134 14.3452 6.01032 14.4034C6.0693 14.4615 6.13925 14.5074 6.21611 14.5383C6.29296 14.5692 6.37519 14.5845 6.45801 14.5833H10.208C10.2908 14.5845 10.3731 14.5692 10.4499 14.5383C10.5268 14.5074 10.5967 14.4615 10.6557 14.4034C10.7147 14.3452 10.7615 14.2759 10.7935 14.1995C10.8254 14.1231 10.8419 14.0411 10.8419 13.9583C10.8419 13.8755 10.8254 13.7935 10.7935 13.717C10.7615 13.6406 10.7147 13.5713 10.6557 13.5132C10.5967 13.455 10.5268 13.4092 10.4499 13.3783C10.3731 13.3474 10.2908 13.3321 10.208 13.3333H6.45801ZM12.708 13.3333C12.6252 13.3321 12.543 13.3474 12.4661 13.3783C12.3893 13.4092 12.3193 13.455 12.2603 13.5132C12.2013 13.5713 12.1545 13.6406 12.1225 13.717C12.0906 13.7935 12.0741 13.8755 12.0741 13.9583C12.0741 14.0411 12.0906 14.1231 12.1225 14.1995C12.1545 14.2759 12.2013 14.3452 12.2603 14.4034C12.3193 14.4615 12.3893 14.5074 12.4661 14.5383C12.543 14.5692 12.6252 14.5845 12.708 14.5833H13.5413C13.6242 14.5845 13.7064 14.5692 13.7832 14.5383C13.8601 14.5074 13.93 14.4615 13.989 14.4034C14.048 14.3452 14.0948 14.2759 14.1268 14.1995C14.1588 14.1231 14.1752 14.0411 14.1752 13.9583C14.1752 13.8755 14.1588 13.7935 14.1268 13.717C14.0948 13.6406 14.048 13.5713 13.989 13.5132C13.93 13.455 13.8601 13.4092 13.7832 13.3783C13.7064 13.3474 13.6242 13.3321 13.5413 13.3333H12.708Z" fill="#FAFBFB"/>
</svg>
