<svg width="10" height="11" viewBox="0 0 10 11" fill="none" xmlns="http://www.w3.org/2000/svg">
<g clip-path="url(#clip0_490_107098)">
<path d="M1.02834 8.00443C1.11001 8.00249 1.1876 7.96816 1.24417 7.90892L5.04576 4.08811L8.84734 7.90892C8.87617 7.93875 8.91066 7.96247 8.94877 7.97867C8.98688 7.99487 9.02784 8.00321 9.06921 8.00322C9.13076 8.0032 9.1909 7.98473 9.24194 7.95017C9.29298 7.91561 9.33261 7.86653 9.35574 7.80921C9.37887 7.75189 9.38446 7.68893 9.3718 7.6284C9.35913 7.56787 9.32879 7.51251 9.28464 7.46941L5.2644 3.42885C5.20641 3.37058 5.12776 3.33785 5.04576 3.33785C4.96375 3.33785 4.8851 3.37058 4.82711 3.42885L0.806869 7.46941C0.761898 7.51279 0.731019 7.56882 0.71828 7.63014C0.705541 7.69147 0.711535 7.75523 0.735478 7.81307C0.759422 7.87091 0.800196 7.92014 0.852455 7.95428C0.904715 7.98843 0.966021 8.00591 1.02834 8.00443Z" fill="#00AD74"/>
</g>
<defs>
<clipPath id="clip0_490_107098">
<rect width="10" height="10" fill="white" transform="translate(10 10.5) rotate(-180)"/>
</clipPath>
</defs>
</svg>
