<svg width="20" height="20" viewBox="0 0 20 20" fill="none" xmlns="http://www.w3.org/2000/svg">
<path d="M14.3752 17.1875C14.2608 17.1875 14.1465 17.1563 14.0449 17.0931L10.0002 14.5775L5.95553 17.0931C5.74303 17.2253 5.47241 17.2178 5.26772 17.075C5.06272 16.9319 4.96241 16.6806 5.01366 16.4359L6.00116 11.6659L2.40241 8.53594C2.21428 8.3725 2.14147 8.11281 2.21678 7.87562C2.29178 7.63812 2.50116 7.46812 2.74897 7.44281L7.52428 6.95469L9.42647 2.56406C9.52553 2.33562 9.75116 2.1875 10.0002 2.1875C10.2493 2.1875 10.4749 2.33562 10.5737 2.56406L12.4758 6.95469L17.2512 7.44281C17.499 7.46812 17.7083 7.63812 17.7833 7.87562C17.8587 8.11312 17.7858 8.3725 17.5977 8.53594L13.9996 11.6659L14.9871 16.4359C15.038 16.6806 14.938 16.9319 14.733 17.075C14.6258 17.1497 14.5005 17.1875 14.3752 17.1875ZM10.0002 13.2166C10.1146 13.2166 10.229 13.2481 10.3305 13.3109L13.4677 15.2622L12.7018 11.5612C12.6558 11.34 12.733 11.1112 12.9037 10.9631L15.6896 8.54L11.9846 8.16125C11.7593 8.13812 11.5643 7.99531 11.4746 7.78781L10.0002 4.38469L8.52584 7.78781C8.43616 7.99531 8.24116 8.13812 8.01584 8.16125L4.31116 8.53969L7.09709 10.9628C7.26772 11.1109 7.34491 11.3397 7.29897 11.5609L6.53303 15.2619L9.67022 13.3106C9.77147 13.2481 9.88584 13.2166 10.0002 13.2166Z" fill="#FAFBFB"/>
</svg>
