<svg width="32" height="22" viewBox="0 0 32 22" fill="none" xmlns="http://www.w3.org/2000/svg">
<path d="M14.8154 9.88007L23.3928 0L32.0001 9.88007H14.8154Z" fill="#FAFBFB"/>
<path d="M14.8154 12.0894L23.3928 22.0001L32.0001 12.0894H14.8154Z" fill="#FAFBFB"/>
<path d="M0 13.3779H2.72915C2.93908 14.6973 4.1687 15.2803 5.57826 15.2803C6.7479 15.2803 7.7076 14.9734 7.7076 13.8995C7.7076 13.0097 6.92784 12.7029 6.05811 12.5188L3.59888 11.8744C1.88941 11.4142 0.299907 10.463 0.299907 7.88557C0.299907 5.27747 2.36926 3.98877 5.00844 3.98877C7.79757 3.98877 9.74696 5.27747 9.98689 8.25377H7.22775C7.01781 7.0878 6.05811 6.59686 4.8285 6.59686C4.01875 6.59686 2.96907 6.9037 2.96907 7.97762C2.96907 8.77539 3.71884 9.02085 4.43862 9.20496L6.83787 9.81862C9.20713 10.4323 10.3768 11.4755 10.3768 13.9916C10.3468 16.6304 8.36739 17.9191 5.54827 17.9191C2.54921 17.8884 0.149953 16.4156 0 13.3779Z" fill="#FAFBFB"/>
</svg>
