<svg width="20" height="20" viewBox="0 0 20 20" fill="none" xmlns="http://www.w3.org/2000/svg">
<path d="M10.0005 2.30774C7.88319 2.30774 6.15437 4.03656 6.15437 6.15389C6.15437 8.27123 7.88319 10 10.0005 10C12.1179 10 13.8467 8.27123 13.8467 6.15389C13.8467 4.03656 12.1179 2.30774 10.0005 2.30774ZM10.0005 3.46159C11.4943 3.46159 12.6928 4.66014 12.6928 6.15389C12.6928 7.64765 11.4943 8.8462 10.0005 8.8462C8.50677 8.8462 7.30822 7.64765 7.30822 6.15389C7.30822 4.66014 8.50677 3.46159 10.0005 3.46159ZM5.37688 11.5385C4.53849 11.5385 3.84668 12.2303 3.84668 13.0687V13.6539C3.84668 15.0401 4.72332 16.1124 5.8877 16.7549C7.05207 17.3973 8.52672 17.6924 10.0005 17.6924C11.4743 17.6924 12.949 17.3973 14.1134 16.7549C15.1062 16.2071 15.8533 15.3318 16.0627 14.2308C16.0627 14.2308 16.137 13.8813 16.1551 13.6539C16.1733 13.4261 16.1551 13.0687 16.1551 13.0687C16.1551 12.2303 15.4626 11.5385 14.6242 11.5385H5.37688ZM5.37688 12.6924H14.6242C14.8389 12.6924 15.0013 12.854 15.0013 13.0687V13.077L15.0005 13.6539C15.0005 14.5754 14.4829 15.2338 13.556 15.7452C12.629 16.2567 11.3152 16.5385 10.0005 16.5385C8.68587 16.5385 7.37206 16.2567 6.44509 15.7452C5.51811 15.2338 5.00053 14.5754 5.00053 13.6539V13.0687C5.00053 12.854 5.16219 12.6924 5.37688 12.6924Z" fill="#FAFBFB"/>
</svg>
