<svg width="20" height="20" viewBox="0 0 20 20" fill="none" xmlns="http://www.w3.org/2000/svg">
<path d="M10.0001 1.6665C5.40511 1.6665 1.66675 5.40487 1.66675 9.99984C1.66675 14.5948 5.40511 18.3332 10.0001 18.3332C14.5951 18.3332 18.3334 14.5948 18.3334 9.99984C18.3334 5.40487 14.5951 1.6665 10.0001 1.6665ZM10.0001 2.9165C13.9195 2.9165 17.0834 6.08042 17.0834 9.99984C17.0834 13.9193 13.9195 17.0832 10.0001 17.0832C6.08066 17.0832 2.91675 13.9193 2.91675 9.99984C2.91675 6.08042 6.08066 2.9165 10.0001 2.9165ZM10.0001 5.4165C8.6268 5.4165 7.50008 6.54323 7.50008 7.9165V8.12484C7.49891 8.20766 7.51421 8.28988 7.54509 8.36674C7.57598 8.44359 7.62183 8.51355 7.67998 8.57253C7.73813 8.63151 7.80743 8.67834 7.88384 8.71031C7.96025 8.74228 8.04225 8.75874 8.12508 8.75874C8.20791 8.75874 8.28991 8.74228 8.36632 8.71031C8.44273 8.67834 8.51203 8.63151 8.57018 8.57253C8.62833 8.51355 8.67418 8.44359 8.70507 8.36674C8.73595 8.28988 8.75125 8.20766 8.75008 8.12484V7.9165C8.75008 7.21895 9.30253 6.6665 10.0001 6.6665C10.6976 6.6665 11.2501 7.21895 11.2501 7.9165C11.2501 8.89188 10.9965 9.0141 10.5518 9.36344C10.3295 9.53812 10.0383 9.7395 9.78931 10.0788C9.5403 10.418 9.37508 10.891 9.37508 11.4582C9.37391 11.541 9.38921 11.6232 9.42009 11.7001C9.45098 11.7769 9.49683 11.8469 9.55498 11.9059C9.61313 11.9648 9.68243 12.0117 9.75884 12.0436C9.83525 12.0756 9.91725 12.0921 10.0001 12.0921C10.0829 12.0921 10.1649 12.0756 10.2413 12.0436C10.3177 12.0117 10.387 11.9648 10.4452 11.9059C10.5033 11.8469 10.5492 11.7769 10.5801 11.7001C10.611 11.6232 10.6263 11.541 10.6251 11.4582C10.6251 11.1027 10.6942 10.9582 10.7968 10.8185C10.8993 10.6788 11.0769 10.5401 11.3233 10.3465C11.8162 9.9593 12.5001 9.23279 12.5001 7.9165C12.5001 6.54323 11.3734 5.4165 10.0001 5.4165ZM10.0001 13.3332C9.77907 13.3332 9.56711 13.421 9.41083 13.5772C9.25455 13.7335 9.16675 13.9455 9.16675 14.1665C9.16675 14.3875 9.25455 14.5995 9.41083 14.7558C9.56711 14.912 9.77907 14.9998 10.0001 14.9998C10.2211 14.9998 10.4331 14.912 10.5893 14.7558C10.7456 14.5995 10.8334 14.3875 10.8334 14.1665C10.8334 13.9455 10.7456 13.7335 10.5893 13.5772C10.4331 13.421 10.2211 13.3332 10.0001 13.3332Z" fill="#FAFBFB"/>
</svg>
